<svg xmlns="http://www.w3.org/2000/svg" viewBox="0 0 64 64">
  <!-- LaLista mark: the ¡¿ twin (Georgia Bold outlines, converted to paths so no font is needed).
       ¡ sage (left) · ¿ amber (right). Transparent background so it reads on any browser-tab state. -->
  <g transform="translate(18.2 32) scale(0.030 -0.030) translate(-385.5 -709)" fill="#4B9C8B">
    <path d="M578 1262Q578 1186 520.5 1130.5Q463 1075 386 1075Q308 1075 250.5 1130.5Q193 1186 193 1262Q193 1338 250.5 1392.5Q308 1447 386 1447Q463 1447 520.5 1392.5Q578 1338 578 1262ZM529 424Q555 314 567.5 260.0Q580 206 580 157Q580 80 522.5 25.5Q465 -29 385 -29Q306 -29 248.5 25.5Q191 80 191 157Q191 206 206.0 270.5Q221 335 242 425Q263 515 290.0 636.5Q317 758 347 956H424Q447 803 475.0 670.5Q503 538 529 424Z"/>
  </g>
  <g transform="translate(37.6 32) scale(0.030 -0.030) translate(-576.5 -711.5)" fill="#C47F25">
    <path d="M853 1267Q853 1191 795.5 1135.5Q738 1080 660 1080Q583 1080 525.5 1135.5Q468 1191 468 1267Q468 1343 525.5 1397.5Q583 1452 660 1452Q738 1452 795.5 1397.5Q853 1343 853 1267ZM1045 246Q1045 131 914.0 51.0Q783 -29 598 -29Q378 -29 243.0 86.0Q108 201 108 386Q108 580 239.5 706.0Q371 832 614 855L620 991H709V602Q569 589 484.5 512.0Q400 435 400 294Q400 184 458.0 119.0Q516 54 612 54Q651 54 687.0 63.5Q723 73 747 89Q736 122 723.0 169.0Q710 216 710 265Q710 335 755.5 373.5Q801 412 882 412Q958 412 1001.5 364.0Q1045 316 1045 246Z"/>
  </g>
</svg>
