<svg xmlns="http://www.w3.org/2000/svg" viewBox="0 0 64 64">
  <!-- LaLista mark: the ¿¡ couple, heads together (Marcellus outlines).
       ¡ sage (partner, left) · ¿ amber (bride, right). Glyphs converted to paths so no font is needed at render time. -->
  <rect width="64" height="64" rx="13" fill="#FAF7F0"/>
  <g transform="translate(23.5 30) rotate(9) scale(0.036 -0.036) translate(-250 -727)" fill="#4B9C8B">
    <path d="M356 1346Q356 1323 347.5 1303.5Q339 1284 325.0 1270.0Q311 1256 291.5 1247.5Q272 1239 250 1239Q227 1239 207.0 1247.5Q187 1256 172.5 1270.0Q158 1284 149.5 1303.5Q141 1323 141 1346Q141 1392 172.0 1423.0Q203 1454 250 1454Q272 1454 291.5 1445.5Q311 1437 325.0 1422.5Q339 1408 347.5 1388.5Q356 1369 356 1346ZM268 1106Q287 881 300.5 716.0Q314 551 324.0 433.0Q334 315 340.5 238.5Q347 162 352.0 114.5Q357 67 361.0 42.5Q365 18 369 4V0H131V4Q135 18 139.0 42.5Q143 67 147.5 114.5Q152 162 159.0 238.5Q166 315 175.5 433.0Q185 551 198.5 716.0Q212 881 231 1106Z"/>
  </g>
  <g transform="translate(36 30.8) rotate(-9) scale(0.036 -0.036) translate(-419 -708.5)" fill="#C47F25">
    <path d="M592 1339Q592 1317 583.5 1297.5Q575 1278 561.0 1264.0Q547 1250 527.0 1241.5Q507 1233 485 1233Q462 1233 442.5 1241.5Q423 1250 408.5 1264.0Q394 1278 385.5 1297.5Q377 1317 377 1339Q377 1386 408.0 1417.0Q439 1448 485 1448Q507 1448 527.0 1439.5Q547 1431 561.0 1416.5Q575 1402 583.5 1382.0Q592 1362 592 1339ZM477 53Q532 53 576.5 70.5Q621 88 654.0 113.5Q687 139 708.0 167.5Q729 196 737 219H756L721 37Q705 30 680.5 18.5Q656 7 623.0 -4.0Q590 -15 548.5 -23.0Q507 -31 457 -31Q389 -31 322.0 -14.0Q255 3 201.5 41.0Q148 79 115.0 140.0Q82 201 82 289Q82 362 110.5 427.5Q139 493 182.0 555.5Q225 618 274.5 679.5Q324 741 367.0 806.5Q410 872 438.5 944.5Q467 1017 467 1100H514Q514 1008 495.5 931.5Q477 855 449.0 789.0Q421 723 388.0 663.0Q355 603 327.0 544.0Q299 485 280.5 423.0Q262 361 262 291Q262 227 280.0 182.0Q298 137 328.0 108.5Q358 80 397.0 66.5Q436 53 477 53Z"/>
  </g>
</svg>
